<svg width="23" height="28" viewBox="0 0 23 28" fill="none" xmlns="http://www.w3.org/2000/svg">
<path d="M14 0H2.8C2.05739 0 1.3452 0.294999 0.820101 0.820101C0.294999 1.3452 0 2.05739 0 2.8V25.2C0 25.9426 0.294999 26.6548 0.820101 27.1799C1.3452 27.705 2.05739 28 2.8 28H19.6C20.3426 28 21.0548 27.705 21.5799 27.1799C22.105 26.6548 22.4 25.9426 22.4 25.2V8.4L14 0ZM19.6 25.2H2.8V2.8H12.6V9.8H19.6V25.2Z" fill="#76C040"/>
<path d="M6.22222 23.8C6.04593 23.8 5.89825 23.7403 5.7792 23.6208C5.66015 23.5013 5.60042 23.3536 5.6 23.1778C5.59959 23.0019 5.65932 22.8542 5.7792 22.7347C5.89908 22.6153 6.04676 22.5555 6.22222 22.5555H16.1778C16.3541 22.5555 16.502 22.6153 16.6214 22.7347C16.7409 22.8542 16.8004 23.0019 16.8 23.1778C16.7996 23.3536 16.7398 23.5015 16.6208 23.6214C16.5017 23.7413 16.3541 23.8008 16.1778 23.8H6.22222ZM8.71111 21.3111C8.53482 21.3111 8.38714 21.2514 8.26809 21.1319C8.14904 21.0124 8.0893 20.8648 8.08889 20.6889C8.08848 20.513 8.14821 20.3653 8.26809 20.2459C8.38797 20.1264 8.53565 20.0667 8.71111 20.0667H13.6889C13.8652 20.0667 14.0131 20.1264 14.1325 20.2459C14.252 20.3653 14.3115 20.513 14.3111 20.6889C14.3107 20.8648 14.251 21.0126 14.1319 21.1325C14.0129 21.2524 13.8652 21.3119 13.6889 21.3111H8.71111ZM6.22222 18.8222C6.04593 18.8222 5.89825 18.7625 5.7792 18.643C5.66015 18.5236 5.60042 18.3759 5.6 18.2C5.59959 18.0241 5.65932 17.8764 5.7792 17.757C5.89908 17.6375 6.04676 17.5778 6.22222 17.5778H16.1778C16.3541 17.5778 16.502 17.6375 16.6214 17.757C16.7409 17.8764 16.8004 18.0241 16.8 18.2C16.7996 18.3759 16.7398 18.5238 16.6208 18.6436C16.5017 18.7635 16.3541 18.823 16.1778 18.8222H6.22222ZM8.71111 16.3333C8.53482 16.3333 8.38714 16.2736 8.26809 16.1541C8.14904 16.0347 8.0893 15.887 8.08889 15.7111C8.08848 15.5352 8.14821 15.3876 8.26809 15.2681C8.38797 15.1486 8.53565 15.0889 8.71111 15.0889H13.6889C13.8652 15.0889 14.0131 15.1486 14.1325 15.2681C14.252 15.3876 14.3115 15.5352 14.3111 15.7111C14.3107 15.887 14.251 16.0349 14.1319 16.1548C14.0129 16.2746 13.8652 16.3342 13.6889 16.3333H8.71111ZM6.22222 13.8444C6.04593 13.8444 5.89825 13.7847 5.7792 13.6652C5.66015 13.5458 5.60042 13.3981 5.6 13.2222C5.59959 13.0463 5.65932 12.8987 5.7792 12.7792C5.89908 12.6597 6.04676 12.6 6.22222 12.6H16.1778C16.3541 12.6 16.502 12.6597 16.6214 12.7792C16.7409 12.8987 16.8004 13.0463 16.8 13.2222C16.7996 13.3981 16.7398 13.546 16.6208 13.6659C16.5017 13.7857 16.3541 13.8453 16.1778 13.8444H6.22222Z" fill="#76C040"/>
</svg>
