<svg width="40" height="40" viewBox="0 0 40 40" fill="none" xmlns="http://www.w3.org/2000/svg">
<path d="M20.5 6C21.5 9.92982 23.5 13.1228 26.5 15.5789C29.5 18.0351 31 20.7368 31 23.6842C31 26.4201 29.8938 29.044 27.9246 30.9786C25.9555 32.9132 23.2848 34 20.5 34C17.7152 34 15.0445 32.9132 13.0754 30.9786C11.1062 29.044 10 26.4201 10 23.6842C10 22.0899 10.5263 20.5386 11.5 19.2632C11.5 20.2403 11.8951 21.1774 12.5983 21.8683C13.3016 22.5592 14.2554 22.9474 15.25 22.9474C16.2446 22.9474 17.1984 22.5592 17.9017 21.8683C18.6049 21.1774 19 20.2403 19 19.2632C19 16.3158 16.75 14.8421 16.75 11.8947C16.75 9.92982 18 7.96491 20.5 6Z" stroke="#76C040" stroke-width="3" stroke-linecap="round" stroke-linejoin="round"/>
</svg>
