<svg width="16" height="14" viewBox="0 0 16 14" fill="none" xmlns="http://www.w3.org/2000/svg">
<path d="M8.22404 8.12015C8.7614 8.17593 9.25923 8.43151 9.62121 8.83745C9.9832 9.24339 10.1836 9.77083 10.1837 10.3177C10.1837 11.4533 9.49991 12.3931 8.58047 13.0132C7.65666 13.6377 6.42008 14 5.09183 14C3.76359 14 2.527 13.6377 1.6032 13.0132C0.682306 12.3945 0 11.4533 0 10.3177C0 9.73177 0.229911 9.16981 0.639156 8.75547C1.0484 8.34114 1.60346 8.10836 2.18221 8.10836H8.00145L8.22404 8.12015ZM13.8178 8.10836C14.3965 8.10836 14.9516 8.34114 15.3608 8.75547C15.7701 9.16981 16 9.73177 16 10.3177C16 11.3414 15.373 12.1014 14.5699 12.5683C13.7727 13.0323 12.7296 13.2635 11.6356 13.2635C11.268 13.2626 10.9091 13.2356 10.559 13.1825C10.8994 12.776 11.1846 12.3091 11.3752 11.7833C11.4615 11.7882 11.5483 11.7906 11.6356 11.7906C12.5506 11.7906 13.3261 11.5947 13.8454 11.2928C14.359 10.9938 14.5452 10.6491 14.5452 10.3177C14.5452 10.1224 14.4686 9.93509 14.3321 9.79698C14.1957 9.65886 14.0107 9.58127 13.8178 9.58127H11.5628C11.4532 9.04681 11.2276 8.5437 10.9023 8.10836H13.8178ZM2.18221 9.58127C1.9893 9.58127 1.80428 9.65886 1.66786 9.79698C1.53145 9.93509 1.45481 10.1224 1.45481 10.3177C1.45481 10.8082 1.75014 11.3429 2.40917 11.7877C3.06383 12.2296 4.00946 12.5271 5.09183 12.5271C6.17276 12.5271 7.11984 12.2296 7.7745 11.7877C8.43353 11.3429 8.72886 10.8082 8.72886 10.3177C8.72889 10.148 8.67099 9.98338 8.56495 9.85186C8.4589 9.72034 8.31124 9.62996 8.14694 9.596L8.00145 9.58127H2.18221ZM5.4279 0.0206206C6.23472 0.104448 6.98218 0.488158 7.52579 1.09756C8.0694 1.70697 8.37053 2.49879 8.37098 3.31994L8.35352 3.65871C8.27005 4.47503 7.89076 5.23109 7.28891 5.78085C6.68706 6.33061 5.90535 6.63508 5.09474 6.63546L4.76014 6.61778C4.01066 6.54036 3.31051 6.20357 2.7778 5.66424C2.24509 5.1249 1.91244 4.41603 1.83597 3.65723L1.81851 3.31846C1.81851 2.43861 2.16364 1.59477 2.77801 0.972476C3.39238 0.350186 4.2257 0.000390526 5.09474 0L5.4279 0.0206206ZM12.0022 1.47585C12.3365 1.47585 12.6676 1.54253 12.9765 1.67206C13.2853 1.8016 13.566 1.99146 13.8024 2.23081C14.0388 2.47017 14.2264 2.75432 14.3543 3.06704C14.4822 3.37977 14.5481 3.71495 14.5481 4.05345C14.5481 4.39194 14.4822 4.72712 14.3543 5.03985C14.2264 5.35257 14.0388 5.63673 13.8024 5.87608C13.566 6.11543 13.2853 6.30529 12.9765 6.43483C12.6676 6.56436 12.3365 6.63104 12.0022 6.63104C11.327 6.63104 10.6794 6.35947 10.2019 5.87608C9.72449 5.39269 9.45626 4.73707 9.45626 4.05345C9.45626 3.36983 9.72449 2.71421 10.2019 2.23081C10.6794 1.74742 11.327 1.47585 12.0022 1.47585ZM5.09474 1.47585C4.85555 1.47585 4.6187 1.52355 4.39772 1.61623C4.17673 1.7089 3.97594 1.84474 3.8068 2.01597C3.63767 2.18721 3.5035 2.3905 3.41197 2.61424C3.32043 2.83797 3.27332 3.07777 3.27332 3.31994C3.27332 3.56211 3.32043 3.8019 3.41197 4.02564C3.5035 4.24937 3.63767 4.45266 3.8068 4.6239C3.97594 4.79514 4.17673 4.93097 4.39772 5.02365C4.6187 5.11632 4.85555 5.16402 5.09474 5.16402C5.57782 5.16402 6.0411 4.96973 6.38268 4.6239C6.72427 4.27807 6.91617 3.80902 6.91617 3.31994C6.91617 2.83086 6.72427 2.36181 6.38268 2.01597C6.0411 1.67014 5.57782 1.47585 5.09474 1.47585ZM12.0022 2.94876C11.7128 2.94876 11.4353 3.06515 11.2307 3.27232C11.026 3.47949 10.9111 3.76047 10.9111 4.05345C10.9111 4.34643 11.026 4.62741 11.2307 4.83457C11.4353 5.04174 11.7128 5.15813 12.0022 5.15813C12.2916 5.15813 12.5691 5.04174 12.7737 4.83457C12.9783 4.62741 13.0933 4.34643 13.0933 4.05345C13.0933 3.76047 12.9783 3.47949 12.7737 3.27232C12.5691 3.06515 12.2916 2.94876 12.0022 2.94876Z" fill="#1A347E"/>
</svg>
