<svg width="20" height="21" viewBox="0 0 20 21" fill="none" xmlns="http://www.w3.org/2000/svg">
<path d="M18 0H2C1.46957 0 0.960859 0.21274 0.585786 0.591419C0.210714 0.970099 0 1.4837 0 2.01923V7.67308C0 13.1543 2.632 16.4789 4.84 18.3033C7.211 20.261 9.584 20.9283 9.684 20.9576C9.89095 21.0141 10.1091 21.0141 10.316 20.9576C10.416 20.9293 12.789 20.261 15.16 18.3033C17.368 16.4789 20 13.1543 20 7.67308V2.01923C20 1.4837 19.7893 0.970099 19.4142 0.591419C19.0391 0.21274 18.5304 0 18 0ZM17.6 7.67308C17.6 11.2784 16.291 14.2043 13.709 16.3709C12.6022 17.2929 11.348 18.0178 10 18.5143C8.65188 18.0181 7.39754 17.2932 6.291 16.3709C3.709 14.2043 2.4 11.2784 2.4 7.67308V2.42308H17.6V7.67308ZM5.151 10.9533C5.03938 10.8406 4.95083 10.7068 4.89042 10.5596C4.83001 10.4123 4.79892 10.2545 4.79892 10.0951C4.79892 9.93577 4.83001 9.77795 4.89042 9.63071C4.95083 9.48346 5.03938 9.34967 5.151 9.23697C5.26262 9.12428 5.39514 9.03488 5.54098 8.97389C5.68683 8.9129 5.84314 8.88151 6.001 8.88151C6.15886 8.88151 6.31517 8.9129 6.46102 8.97389C6.60686 9.03488 6.73938 9.12428 6.851 9.23697L8.4 10.8029L13.151 6.00519C13.3764 5.77759 13.6822 5.64973 14.001 5.64973C14.3198 5.64973 14.6256 5.77759 14.851 6.00519C15.0764 6.2328 15.2031 6.54149 15.2031 6.86337C15.2031 7.18525 15.0764 7.49394 14.851 7.72154L9.251 13.3754C9.13952 13.4883 9.00704 13.578 8.86118 13.6391C8.71532 13.7003 8.55894 13.7317 8.401 13.7317C8.24306 13.7317 8.08668 13.7003 7.94082 13.6391C7.79496 13.578 7.66248 13.4883 7.551 13.3754L5.151 10.9533Z" fill="#1D3680"/>
</svg>
