<svg width="22" height="19" viewBox="0 0 22 19" fill="none" xmlns="http://www.w3.org/2000/svg">
<path d="M11 18C9.6442 16.3177 7.42857 15.1667 1.71429 15.1667C1.27322 15.1667 1.00001 14.8103 1.00001 14.3729V1.70834C0.999651 1.61522 1.01788 1.52295 1.05366 1.43686C1.08943 1.35076 1.14203 1.27253 1.20842 1.20669C1.27482 1.14084 1.35371 1.08868 1.44053 1.05321C1.52735 1.01774 1.62039 0.999654 1.71429 1.00001C7.58795 1.02612 10.2857 2.45386 11 5.25C11.7143 2.45386 14.4121 1.02612 20.2857 1.00001C20.3796 0.999654 20.4727 1.01774 20.5595 1.05321C20.6463 1.08868 20.7252 1.14084 20.7916 1.20669C20.858 1.27253 20.9106 1.35076 20.9463 1.43686C20.9821 1.52295 21.0004 1.61522 21 1.70834V14.4583C21 14.6462 20.9247 14.8264 20.7908 14.9592C20.6568 15.092 20.4752 15.1667 20.2857 15.1667C14.5714 15.1667 12.3638 16.3093 11 18ZM11 5.25V18" stroke="#B25F30" stroke-width="2" stroke-linecap="round" stroke-linejoin="round"/>
</svg>
