<svg width="27" height="28" viewBox="0 0 27 28" fill="none" xmlns="http://www.w3.org/2000/svg">
<path d="M24.3 0H2.7C1.98392 0 1.29716 0.283653 0.790812 0.788559C0.284463 1.29346 0 1.97826 0 2.69231V10.2308C0 17.539 3.5532 21.9719 6.534 24.4044C9.73485 27.0146 12.9384 27.9044 13.0734 27.9435C13.3528 28.0188 13.6472 28.0188 13.9266 27.9435C14.0616 27.9058 17.2652 27.0146 20.466 24.4044C23.4468 21.9719 27 17.539 27 10.2308V2.69231C27 1.97826 26.7155 1.29346 26.2092 0.788559C25.7028 0.283653 25.0161 0 24.3 0ZM23.76 10.2308C23.76 15.0379 21.9928 18.939 18.5071 21.8279C17.013 23.0572 15.3197 24.0237 13.5 24.6858C11.68 24.0242 9.98668 23.0577 8.49285 21.8279C5.00715 18.939 3.24 15.0379 3.24 10.2308V3.23077H23.76V10.2308ZM6.95385 14.6044C6.80316 14.4542 6.68362 14.2758 6.60207 14.0795C6.52051 13.8831 6.47854 13.6727 6.47854 13.4602C6.47854 13.2477 6.52051 13.0373 6.60207 12.8409C6.68362 12.6446 6.80316 12.4662 6.95385 12.316C7.10454 12.1657 7.28344 12.0465 7.48033 11.9652C7.67722 11.8839 7.88824 11.842 8.10135 11.842C8.31446 11.842 8.52548 11.8839 8.72237 11.9652C8.91926 12.0465 9.09816 12.1657 9.24885 12.316L11.34 14.4039L17.7538 8.00693C18.0582 7.70346 18.471 7.53297 18.9013 7.53297C19.3317 7.53297 19.7445 7.70346 20.0488 8.00693C20.3532 8.3104 20.5242 8.72199 20.5242 9.15116C20.5242 9.58033 20.3532 9.99192 20.0488 10.2954L12.4888 17.8339C12.3383 17.9844 12.1595 18.1039 11.9626 18.1855C11.7657 18.267 11.5546 18.309 11.3413 18.309C11.1281 18.309 10.917 18.267 10.7201 18.1855C10.5232 18.1039 10.3444 17.9844 10.1938 17.8339L6.95385 14.6044Z" fill="#76C040"/>
</svg>
