<svg width="15" height="12" viewBox="0 0 15 12" fill="none" xmlns="http://www.w3.org/2000/svg">
<path d="M1.5 12C1.0875 12 0.7345 11.8532 0.441 11.5597C0.1475 11.2662 0.0005 10.913 0 10.5V1.5C0 1.0875 0.147 0.7345 0.441 0.441C0.735 0.1475 1.088 0.0005 1.5 0H13.5C13.9125 0 14.2657 0.147 14.5597 0.441C14.8537 0.735 15.0005 1.088 15 1.5V10.5C15 10.9125 14.8532 11.2657 14.5597 11.5597C14.2662 11.8537 13.913 12.0005 13.5 12H1.5ZM13.5 3L7.89375 6.50625C7.83125 6.54375 7.76575 6.572 7.69725 6.591C7.62875 6.61 7.563 6.61925 7.5 6.61875C7.437 6.61825 7.3715 6.609 7.3035 6.591C7.2355 6.573 7.16975 6.54475 7.10625 6.50625L1.5 3V10.5H13.5V3ZM7.5 5.25L13.5 1.5H1.5L7.5 5.25ZM1.5 3.1875V2.08125V2.1V2.091V3.1875Z" fill="white" fill-opacity="0.6"/>
</svg>
