<svg width="40" height="40" viewBox="0 0 40 40" fill="none" xmlns="http://www.w3.org/2000/svg">
<path d="M35.4032 30.8888H33.8065V16.8883C33.8065 16.2007 33.5261 15.5412 33.027 15.055C32.5279 14.5688 31.851 14.2956 31.1452 14.2956H26.3548V8.59174C26.3547 8.15591 26.2417 7.72714 26.0265 7.34509C25.8112 6.96303 25.5005 6.64001 25.1232 6.40587C24.7459 6.17174 24.314 6.03406 23.8676 6.00555C23.4212 5.97704 22.9746 6.05863 22.5692 6.24277L8.73044 12.5352C8.27178 12.7445 7.88371 13.0767 7.61157 13.4928C7.33943 13.909 7.19444 14.392 7.19355 14.8855V30.8888H5.59677C5.17328 30.8888 4.76714 31.0527 4.46768 31.3444C4.16823 31.6361 4 32.0318 4 32.4444C4 32.857 4.16823 33.2526 4.46768 33.5444C4.76714 33.8361 5.17328 34 5.59677 34H35.4032C35.8267 34 36.2329 33.8361 36.5323 33.5444C36.8318 33.2526 37 32.857 37 32.4444C37 32.0318 36.8318 31.6361 36.5323 31.3444C36.2329 31.0527 35.8267 30.8888 35.4032 30.8888ZM30.6129 17.4069V30.8888H26.3548V17.4069H30.6129ZM10.3871 15.2147L23.1613 9.40843V30.8888H10.3871V15.2147ZM21.0323 18.9625V20.5181C21.0323 20.9306 20.864 21.3263 20.5646 21.618C20.2651 21.9098 19.859 22.0737 19.4355 22.0737C19.012 22.0737 18.6058 21.9098 18.3064 21.618C18.0069 21.3263 17.8387 20.9306 17.8387 20.5181V18.9625C17.8387 18.5499 18.0069 18.1542 18.3064 17.8625C18.6058 17.5707 19.012 17.4069 19.4355 17.4069C19.859 17.4069 20.2651 17.5707 20.5646 17.8625C20.864 18.1542 21.0323 18.5499 21.0323 18.9625ZM15.7097 18.9625V20.5181C15.7097 20.9306 15.5414 21.3263 15.242 21.618C14.9425 21.9098 14.5364 22.0737 14.1129 22.0737C13.6894 22.0737 13.2833 21.9098 12.9838 21.618C12.6844 21.3263 12.5161 20.9306 12.5161 20.5181V18.9625C12.5161 18.5499 12.6844 18.1542 12.9838 17.8625C13.2833 17.5707 13.6894 17.4069 14.1129 17.4069C14.5364 17.4069 14.9425 17.5707 15.242 17.8625C15.5414 18.1542 15.7097 18.5499 15.7097 18.9625ZM15.7097 25.7034V27.259C15.7097 27.6716 15.5414 28.0673 15.242 28.359C14.9425 28.6507 14.5364 28.8146 14.1129 28.8146C13.6894 28.8146 13.2833 28.6507 12.9838 28.359C12.6844 28.0673 12.5161 27.6716 12.5161 27.259V25.7034C12.5161 25.2909 12.6844 24.8952 12.9838 24.6034C13.2833 24.3117 13.6894 24.1478 14.1129 24.1478C14.5364 24.1478 14.9425 24.3117 15.242 24.6034C15.5414 24.8952 15.7097 25.2909 15.7097 25.7034ZM21.0323 25.7034V27.259C21.0323 27.6716 20.864 28.0673 20.5646 28.359C20.2651 28.6507 19.859 28.8146 19.4355 28.8146C19.012 28.8146 18.6058 28.6507 18.3064 28.359C18.0069 28.0673 17.8387 27.6716 17.8387 27.259V25.7034C17.8387 25.2909 18.0069 24.8952 18.3064 24.6034C18.6058 24.3117 19.012 24.1478 19.4355 24.1478C19.859 24.1478 20.2651 24.3117 20.5646 24.6034C20.864 24.8952 21.0323 25.2909 21.0323 25.7034Z" fill="#76C040"/>
</svg>
