<svg width="18" height="13" viewBox="0 0 18 13" fill="none" xmlns="http://www.w3.org/2000/svg">
<path d="M0 11C0 11.5304 0.210714 12.0391 0.585786 12.4142C0.960859 12.7893 1.46957 13 2 13H16C16.5304 13 17.0391 12.7893 17.4142 12.4142C17.7893 12.0391 18 11.5304 18 11V8.5H0V11Z" fill="#138808"/>
<path d="M18 4.5V2C18 1.46957 17.7893 0.960859 17.4142 0.585786C17.0391 0.210714 16.5304 0 16 0H2C1.46957 0 0.960859 0.210714 0.585786 0.585786C0.210714 0.960859 0 1.46957 0 2V4.5H18Z" fill="#FF9933"/>
<path d="M0 4.3335H18V8.667H0V4.3335Z" fill="#F7F7F7"/>
<path d="M9 8.5C10.1046 8.5 11 7.60457 11 6.5C11 5.39543 10.1046 4.5 9 4.5C7.89543 4.5 7 5.39543 7 6.5C7 7.60457 7.89543 8.5 9 8.5Z" fill="#000080"/>
<path d="M9 8.1875C9.93198 8.1875 10.6875 7.43198 10.6875 6.5C10.6875 5.56802 9.93198 4.8125 9 4.8125C8.06802 4.8125 7.3125 5.56802 7.3125 6.5C7.3125 7.43198 8.06802 8.1875 9 8.1875Z" fill="#F7F7F7"/>
<path d="M9.0499 5.875L8.9999 6.2L8.9499 5.875L8.9999 4.9L9.0499 5.875ZM8.5859 4.9545L8.7899 5.909L8.9224 6.21L8.8864 5.8835L8.5859 4.9545ZM8.1999 5.1145L8.6439 5.9835L8.8499 6.24L8.7309 5.9335L8.1999 5.1145ZM7.8684 5.3685L8.5224 6.0935L8.7879 6.288L8.5934 6.0225L7.8684 5.3685ZM7.6144 5.7L8.4334 6.231L8.7399 6.35L8.4834 6.144L7.6144 5.7ZM7.4544 6.086L8.3834 6.3865L8.7099 6.4225L8.4089 6.29L7.4544 6.086ZM7.3999 6.5L8.3749 6.55L8.6999 6.5L8.3749 6.45L7.3999 6.5ZM7.4544 6.914L8.4089 6.71L8.7099 6.5775L8.3834 6.6135L7.4544 6.914ZM7.6144 7.3L8.4834 6.856L8.7399 6.65L8.4334 6.769L7.6144 7.3ZM7.8684 7.6315L8.5934 6.9775L8.7879 6.712L8.5224 6.9065L7.8684 7.6315ZM8.1999 7.8855L8.7309 7.0665L8.8499 6.76L8.6439 7.0165L8.1999 7.8855ZM8.5859 8.0455L8.8864 7.1165L8.9224 6.79L8.7899 7.091L8.5859 8.0455ZM8.9999 8.1L9.0499 7.125L8.9999 6.8L8.9499 7.125L8.9999 8.1ZM9.4139 8.0455L9.2099 7.091L9.0774 6.79L9.1134 7.1165L9.4139 8.0455ZM9.7999 7.8855L9.3559 7.0165L9.1499 6.76L9.2689 7.0665L9.7999 7.8855ZM10.1314 7.6315L9.4774 6.9065L9.2119 6.712L9.4064 6.9775L10.1314 7.6315ZM10.3854 7.3L9.5664 6.769L9.2599 6.65L9.5164 6.856L10.3854 7.3ZM10.5454 6.914L9.6164 6.6135L9.2899 6.5775L9.5909 6.71L10.5454 6.914ZM10.5999 6.5L9.6249 6.45L9.2999 6.5L9.6249 6.55L10.5999 6.5ZM10.5454 6.086L9.5909 6.29L9.2899 6.4225L9.6164 6.3865L10.5454 6.086ZM10.3854 5.7L9.5164 6.144L9.2599 6.35L9.5664 6.231L10.3854 5.7ZM10.1314 5.3685L9.4064 6.0225L9.2119 6.288L9.4774 6.0935L10.1314 5.3685ZM9.7999 5.1145L9.2689 5.9335L9.1499 6.24L9.3559 5.9835L9.7999 5.1145ZM9.4139 4.9545L9.1134 5.8835L9.0774 6.21L9.2099 5.909L9.4139 4.9545Z" fill="#6666B3"/>
<path d="M8.77999 4.9295C8.83522 4.9295 8.87999 4.88473 8.87999 4.8295C8.87999 4.77427 8.83522 4.7295 8.77999 4.7295C8.72476 4.7295 8.67999 4.77427 8.67999 4.8295C8.67999 4.88473 8.72476 4.9295 8.77999 4.9295Z" fill="#000080"/>
<path d="M8.35499 5.0435C8.41022 5.0435 8.45499 4.99873 8.45499 4.9435C8.45499 4.88827 8.41022 4.8435 8.35499 4.8435C8.29976 4.8435 8.25499 4.88827 8.25499 4.9435C8.25499 4.99873 8.29976 5.0435 8.35499 5.0435Z" fill="#000080"/>
<path d="M7.97399 5.263C8.02922 5.263 8.07399 5.21823 8.07399 5.163C8.07399 5.10777 8.02922 5.063 7.97399 5.063C7.91876 5.063 7.87399 5.10777 7.87399 5.163C7.87399 5.21823 7.91876 5.263 7.97399 5.263Z" fill="#000080"/>
<path d="M7.66299 5.574C7.71822 5.574 7.76299 5.52923 7.76299 5.474C7.76299 5.41877 7.71822 5.374 7.66299 5.374C7.60776 5.374 7.56299 5.41877 7.56299 5.474C7.56299 5.52923 7.60776 5.574 7.66299 5.574Z" fill="#000080"/>
<path d="M7.44349 5.955C7.49872 5.955 7.54349 5.91023 7.54349 5.855C7.54349 5.79977 7.49872 5.755 7.44349 5.755C7.38826 5.755 7.34349 5.79977 7.34349 5.855C7.34349 5.91023 7.38826 5.955 7.44349 5.955Z" fill="#000080"/>
<path d="M7.32949 6.38C7.38472 6.38 7.42949 6.33523 7.42949 6.28C7.42949 6.22477 7.38472 6.18 7.32949 6.18C7.27426 6.18 7.22949 6.22477 7.22949 6.28C7.22949 6.33523 7.27426 6.38 7.32949 6.38Z" fill="#000080"/>
<path d="M7.32949 6.82C7.38472 6.82 7.42949 6.77523 7.42949 6.72C7.42949 6.66477 7.38472 6.62 7.32949 6.62C7.27426 6.62 7.22949 6.66477 7.22949 6.72C7.22949 6.77523 7.27426 6.82 7.32949 6.82Z" fill="#000080"/>
<path d="M7.44349 7.245C7.49872 7.245 7.54349 7.20023 7.54349 7.145C7.54349 7.08977 7.49872 7.045 7.44349 7.045C7.38826 7.045 7.34349 7.08977 7.34349 7.145C7.34349 7.20023 7.38826 7.245 7.44349 7.245Z" fill="#000080"/>
<path d="M7.66299 7.626C7.71822 7.626 7.76299 7.58123 7.76299 7.526C7.76299 7.47077 7.71822 7.426 7.66299 7.426C7.60776 7.426 7.56299 7.47077 7.56299 7.526C7.56299 7.58123 7.60776 7.626 7.66299 7.626Z" fill="#000080"/>
<path d="M7.97399 7.937C8.02922 7.937 8.07399 7.89223 8.07399 7.837C8.07399 7.78177 8.02922 7.737 7.97399 7.737C7.91876 7.737 7.87399 7.78177 7.87399 7.837C7.87399 7.89223 7.91876 7.937 7.97399 7.937Z" fill="#000080"/>
<path d="M8.35499 8.1565C8.41022 8.1565 8.45499 8.11173 8.45499 8.0565C8.45499 8.00127 8.41022 7.9565 8.35499 7.9565C8.29976 7.9565 8.25499 8.00127 8.25499 8.0565C8.25499 8.11173 8.29976 8.1565 8.35499 8.1565Z" fill="#000080"/>
<path d="M8.77999 8.2705C8.83522 8.2705 8.87999 8.22573 8.87999 8.1705C8.87999 8.11527 8.83522 8.0705 8.77999 8.0705C8.72476 8.0705 8.67999 8.11527 8.67999 8.1705C8.67999 8.22573 8.72476 8.2705 8.77999 8.2705Z" fill="#000080"/>
<path d="M9.21999 8.2705C9.27522 8.2705 9.31999 8.22573 9.31999 8.1705C9.31999 8.11527 9.27522 8.0705 9.21999 8.0705C9.16476 8.0705 9.11999 8.11527 9.11999 8.1705C9.11999 8.22573 9.16476 8.2705 9.21999 8.2705Z" fill="#000080"/>
<path d="M9.64499 8.1565C9.70022 8.1565 9.74499 8.11173 9.74499 8.0565C9.74499 8.00127 9.70022 7.9565 9.64499 7.9565C9.58976 7.9565 9.54499 8.00127 9.54499 8.0565C9.54499 8.11173 9.58976 8.1565 9.64499 8.1565Z" fill="#000080"/>
<path d="M10.026 7.937C10.0812 7.937 10.126 7.89223 10.126 7.837C10.126 7.78177 10.0812 7.737 10.026 7.737C9.97076 7.737 9.92599 7.78177 9.92599 7.837C9.92599 7.89223 9.97076 7.937 10.026 7.937Z" fill="#000080"/>
<path d="M10.337 7.626C10.3922 7.626 10.437 7.58123 10.437 7.526C10.437 7.47077 10.3922 7.426 10.337 7.426C10.2818 7.426 10.237 7.47077 10.237 7.526C10.237 7.58123 10.2818 7.626 10.337 7.626Z" fill="#000080"/>
<path d="M10.5565 7.245C10.6117 7.245 10.6565 7.20023 10.6565 7.145C10.6565 7.08977 10.6117 7.045 10.5565 7.045C10.5013 7.045 10.4565 7.08977 10.4565 7.145C10.4565 7.20023 10.5013 7.245 10.5565 7.245Z" fill="#000080"/>
<path d="M10.6705 6.82C10.7257 6.82 10.7705 6.77523 10.7705 6.72C10.7705 6.66477 10.7257 6.62 10.6705 6.62C10.6153 6.62 10.5705 6.66477 10.5705 6.72C10.5705 6.77523 10.6153 6.82 10.6705 6.82Z" fill="#000080"/>
<path d="M10.6705 6.38C10.7257 6.38 10.7705 6.33523 10.7705 6.28C10.7705 6.22477 10.7257 6.18 10.6705 6.18C10.6153 6.18 10.5705 6.22477 10.5705 6.28C10.5705 6.33523 10.6153 6.38 10.6705 6.38Z" fill="#000080"/>
<path d="M10.5565 5.955C10.6117 5.955 10.6565 5.91023 10.6565 5.855C10.6565 5.79977 10.6117 5.755 10.5565 5.755C10.5013 5.755 10.4565 5.79977 10.4565 5.855C10.4565 5.91023 10.5013 5.955 10.5565 5.955Z" fill="#000080"/>
<path d="M10.337 5.574C10.3922 5.574 10.437 5.52923 10.437 5.474C10.437 5.41877 10.3922 5.374 10.337 5.374C10.2818 5.374 10.237 5.41877 10.237 5.474C10.237 5.52923 10.2818 5.574 10.337 5.574Z" fill="#000080"/>
<path d="M10.026 5.263C10.0812 5.263 10.126 5.21823 10.126 5.163C10.126 5.10777 10.0812 5.063 10.026 5.063C9.97076 5.063 9.92599 5.10777 9.92599 5.163C9.92599 5.21823 9.97076 5.263 10.026 5.263Z" fill="#000080"/>
<path d="M9.64499 5.0435C9.70022 5.0435 9.74499 4.99873 9.74499 4.9435C9.74499 4.88827 9.70022 4.8435 9.64499 4.8435C9.58976 4.8435 9.54499 4.88827 9.54499 4.9435C9.54499 4.99873 9.58976 5.0435 9.64499 5.0435Z" fill="#000080"/>
<path d="M9.21999 4.9295C9.27522 4.9295 9.31999 4.88473 9.31999 4.8295C9.31999 4.77427 9.27522 4.7295 9.21999 4.7295C9.16476 4.7295 9.11999 4.77427 9.11999 4.8295C9.11999 4.88473 9.16476 4.9295 9.21999 4.9295Z" fill="#000080"/>
<path d="M8.99999 6.95C9.24852 6.95 9.44999 6.74853 9.44999 6.5C9.44999 6.25147 9.24852 6.05 8.99999 6.05C8.75146 6.05 8.54999 6.25147 8.54999 6.5C8.54999 6.74853 8.75146 6.95 8.99999 6.95Z" fill="#000080"/>
</svg>
