<svg width="20" height="22" viewBox="0 0 20 22" fill="none" xmlns="http://www.w3.org/2000/svg">
<path d="M6.15385 0.785714C6.15385 0.57733 6.23489 0.37748 6.37915 0.23013C6.52341 0.0827803 6.71906 0 6.92308 0H8.46154C8.66555 0 8.86121 0.0827803 9.00547 0.23013C9.14973 0.37748 9.23077 0.57733 9.23077 0.785714V1.57143H10.7692C10.9732 1.57143 11.1689 1.65421 11.3132 1.80156C11.4574 1.94891 11.5385 2.14876 11.5385 2.35714V3.93643C16.2462 4.14229 20 8.10543 20 12.9643C20 16.0655 18.4708 18.8014 16.1408 20.4286H19.2308C19.4348 20.4286 19.6304 20.5114 19.7747 20.6587C19.919 20.8061 20 21.0059 20 21.2143C20 21.4227 19.919 21.6225 19.7747 21.7699C19.6304 21.9172 19.4348 22 19.2308 22H0.769231C0.565218 22 0.369561 21.9172 0.225302 21.7699C0.0810437 21.6225 0 21.4227 0 21.2143C0 21.0059 0.0810437 20.8061 0.225302 20.6587C0.369561 20.5114 0.565218 20.4286 0.769231 20.4286H11.1538C13.092 20.4286 14.9507 19.6422 16.3212 18.2423C17.6916 16.8425 18.4615 14.9439 18.4615 12.9643C18.4615 8.97364 15.3954 5.7145 11.5385 5.51021V11.7857C11.5385 11.9941 11.4574 12.1939 11.3132 12.3413C11.1689 12.4886 10.9732 12.5714 10.7692 12.5714H10V13.3571C10 13.9823 9.75687 14.5818 9.32409 15.0239C8.89132 15.4659 8.30435 15.7143 7.69231 15.7143C7.08027 15.7143 6.4933 15.4659 6.06052 15.0239C5.62775 14.5818 5.38462 13.9823 5.38462 13.3571V12.5714H4.61538C4.41137 12.5714 4.21572 12.4886 4.07146 12.3413C3.9272 12.1939 3.84615 11.9941 3.84615 11.7857V2.35714C3.84615 2.14876 3.9272 1.94891 4.07146 1.80156C4.21572 1.65421 4.41137 1.57143 4.61538 1.57143H6.15385V0.785714ZM6.92308 12.5714V13.3571C6.92308 13.5655 7.00412 13.7654 7.14838 13.9127C7.29264 14.0601 7.4883 14.1429 7.69231 14.1429C7.89632 14.1429 8.09198 14.0601 8.23624 13.9127C8.3805 13.7654 8.46154 13.5655 8.46154 13.3571V12.5714H6.92308ZM3.07692 18.0714C3.07692 17.863 3.15797 17.6632 3.30223 17.5158C3.44648 17.3685 3.64214 17.2857 3.84615 17.2857H11.5385C11.7425 17.2857 11.9381 17.3685 12.0824 17.5158C12.2266 17.6632 12.3077 17.863 12.3077 18.0714C12.3077 18.2798 12.2266 18.4797 12.0824 18.627C11.9381 18.7744 11.7425 18.8571 11.5385 18.8571H3.84615C3.64214 18.8571 3.44648 18.7744 3.30223 18.627C3.15797 18.4797 3.07692 18.2798 3.07692 18.0714Z" fill="#17702F"/>
</svg>
