<svg width="20" height="17" viewBox="0 0 20 17" fill="none" xmlns="http://www.w3.org/2000/svg">
<path d="M10.2801 9.86018C10.9518 9.92792 11.574 10.2383 12.0265 10.7312C12.479 11.2241 12.7295 11.8646 12.7296 12.5287C12.7296 13.9076 11.8749 15.0487 10.7256 15.8017C9.57083 16.56 8.02509 17 6.36479 17C4.70449 17 3.15876 16.56 2.004 15.8017C0.852882 15.0505 0 13.9076 0 12.5287C0 11.8171 0.287389 11.1348 0.798945 10.6316C1.3105 10.1285 2.00432 9.84587 2.72777 9.84587H10.0018L10.2801 9.86018ZM17.2722 9.84587C17.9957 9.84587 18.6895 10.1285 19.2011 10.6316C19.7126 11.1348 20 11.8171 20 12.5287C20 13.7717 19.2162 14.6946 18.2124 15.2615C17.2159 15.8249 15.912 16.1057 14.5445 16.1057C14.085 16.1045 13.6364 16.0718 13.1988 16.0074C13.6243 15.5137 13.9807 14.9468 14.2189 14.3083C14.3268 14.3142 14.4354 14.3172 14.5445 14.3172C15.6883 14.3172 16.6576 14.0793 17.3068 13.7127C17.9487 13.3496 18.1815 12.9311 18.1815 12.5287C18.1815 12.2915 18.0857 12.064 17.9152 11.8963C17.7447 11.7286 17.5134 11.6344 17.2722 11.6344H14.4535C14.3165 10.9854 14.0345 10.3745 13.6279 9.84587H17.2722ZM2.72777 11.6344C2.48662 11.6344 2.25535 11.7286 2.08483 11.8963C1.91431 12.064 1.81851 12.2915 1.81851 12.5287C1.81851 13.1243 2.18767 13.7735 3.01146 14.3136C3.82979 14.8502 5.01182 15.2115 6.36479 15.2115C7.71595 15.2115 8.8998 14.8502 9.71813 14.3136C10.5419 13.7735 10.9111 13.1243 10.9111 12.5287C10.9111 12.3225 10.8387 12.1227 10.7062 11.963C10.5736 11.8033 10.389 11.6935 10.1837 11.6523L10.0018 11.6344H2.72777ZM6.78487 0.0250393C7.79339 0.12683 8.72773 0.592763 9.40724 1.33276C10.0867 2.07275 10.4632 3.03425 10.4637 4.03135L10.4419 4.44271C10.3376 5.43397 9.86345 6.35203 9.11114 7.0196C8.35883 7.68717 7.38169 8.05689 6.36843 8.05734L5.95017 8.03588C5.01333 7.94187 4.13813 7.53291 3.47225 6.878C2.80636 6.22309 2.39055 5.36232 2.29496 4.44093L2.27314 4.02956C2.27314 2.96117 2.70455 1.9365 3.47251 1.18086C4.24048 0.425226 5.28212 0.000474211 6.36843 0L6.78487 0.0250393ZM15.0027 1.79211C15.4206 1.79211 15.8345 1.87307 16.2206 2.03036C16.6067 2.18766 16.9575 2.4182 17.253 2.70885C17.5485 2.99949 17.7829 3.34453 17.9429 3.72427C18.1028 4.10401 18.1851 4.51101 18.1851 4.92204C18.1851 5.33307 18.1028 5.74007 17.9429 6.11981C17.7829 6.49956 17.5485 6.8446 17.253 7.13524C16.9575 7.42588 16.6067 7.65643 16.2206 7.81372C15.8345 7.97101 15.4206 8.05197 15.0027 8.05197C14.1587 8.05197 13.3492 7.72221 12.7524 7.13524C12.1556 6.54826 11.8203 5.75215 11.8203 4.92204C11.8203 4.09193 12.1556 3.29582 12.7524 2.70885C13.3492 2.12187 14.1587 1.79211 15.0027 1.79211ZM6.36843 1.79211C6.06944 1.79211 5.77338 1.85003 5.49715 1.96256C5.22091 2.07509 4.96992 2.24004 4.75851 2.44797C4.54709 2.6559 4.37938 2.90275 4.26496 3.17443C4.15054 3.44611 4.09165 3.73729 4.09165 4.03135C4.09165 4.32541 4.15054 4.6166 4.26496 4.88827C4.37938 5.15995 4.54709 5.4068 4.75851 5.61474C4.96992 5.82267 5.22091 5.98761 5.49715 6.10014C5.77338 6.21268 6.06944 6.27059 6.36843 6.27059C6.97227 6.27059 7.55138 6.03468 7.97836 5.61474C8.40533 5.1948 8.64521 4.62524 8.64521 4.03135C8.64521 3.43747 8.40533 2.86791 7.97836 2.44797C7.55138 2.02803 6.97227 1.79211 6.36843 1.79211ZM15.0027 3.58064C14.641 3.58064 14.2941 3.72197 14.0383 3.97353C13.7825 4.22509 13.6388 4.56628 13.6388 4.92204C13.6388 5.2778 13.7825 5.61899 14.0383 5.87055C14.2941 6.12211 14.641 6.26344 15.0027 6.26344C15.3645 6.26344 15.7114 6.12211 15.9671 5.87055C16.2229 5.61899 16.3666 5.2778 16.3666 4.92204C16.3666 4.56628 16.2229 4.22509 15.9671 3.97353C15.7114 3.72197 15.3645 3.58064 15.0027 3.58064Z" fill="#7718C8"/>
</svg>
