<svg width="10" height="12" viewBox="0 0 10 12" fill="none" xmlns="http://www.w3.org/2000/svg">
<path d="M4.7998 0.5C5.94024 0.5 7.03441 0.953359 7.84082 1.75977C8.647 2.5661 9.09956 3.65958 9.09961 4.7998C9.09961 6.55614 8.00901 8.237 6.83105 9.52539C6.25112 10.1597 5.6694 10.6775 5.23242 11.0371C5.06336 11.1762 4.9158 11.2906 4.7998 11.3789C4.68388 11.2907 4.53705 11.1761 4.36816 11.0371C3.93114 10.6775 3.34861 10.1598 2.76855 9.52539C1.59063 8.23701 0.5 6.55611 0.5 4.7998C0.500052 3.65944 0.953405 2.56613 1.75977 1.75977C2.56613 0.953405 3.65944 0.500052 4.7998 0.5Z" stroke="white" stroke-opacity="0.6"/>
</svg>
