<svg width="12" height="12" viewBox="0 0 12 12" fill="none" xmlns="http://www.w3.org/2000/svg">
<path d="M10.8242 8.18318L9.12749 7.98946C8.92798 7.96603 8.72575 7.98811 8.536 8.05406C8.34626 8.12001 8.17392 8.22811 8.03195 8.37023L6.80281 9.59937C4.90659 8.63472 3.36526 7.09339 2.40061 5.19716L3.63644 3.96133C3.92368 3.67408 4.06396 3.27327 4.0172 2.86579L3.82348 1.18239C3.78575 0.856456 3.6294 0.555805 3.38424 0.337745C3.13907 0.119685 2.82224 -0.000534459 2.49414 1.78624e-06H1.33848C0.583624 1.78624e-06 -0.0443069 0.627936 0.00245392 1.38279C0.3565 7.08764 4.91902 11.6435 10.6172 11.9975C11.372 12.0443 11.9999 11.4164 11.9999 10.6615V9.50585C12.0066 8.83116 11.4989 8.26334 10.8242 8.18318Z" fill="white" fill-opacity="0.6"/>
</svg>
